<svg height="64" viewBox="0 0 1024 1024" width="64" xmlns="http://www.w3.org/2000/svg"><path d="m825.6 108.8h-627.2c-73.9 0-134.4 60.5-134.4 134.4v403.2c0 73.9 60.5 134.4 134.4 134.4h291.2v89.6h-112c-12.4 0-22.4 10-22.4 22.4s10 22.4 22.4 22.4h268.8c12.4 0 22.4-10 22.4-22.4s-10-22.4-22.4-22.4h-112v-89.6h291.2c73.9 0 134.4-60.5 134.4-134.4v-403.2c0-73.9-60.5-134.4-134.4-134.4zm-627.2 44.8h627.2c49.4 0 89.6 40.2 89.6 89.6v358.4h-806.4v-358.4c0-49.4 40.2-89.6 89.6-89.6zm627.2 582.4h-627.2c-49.4 0-89.6-40.2-89.6-89.6h806.4c0 49.4-40.2 89.6-89.6 89.6z" fill="#8a8a8a"/></svg>