<svg height="128" viewBox="0 0 1024 1024" width="128" xmlns="http://www.w3.org/2000/svg"><path d="m864.712658 51.262255-386.023294 344.297965a22.782542 22.782542 0 0 0 -7.423525 16.638935l-1.791885 547.03699a9.727377 9.727377 0 0 1 -13.311148 8.191476l-174.580827-86.010496a8.703443 8.703443 0 0 1 -6.143607-8.191475l6.143607-458.466659a25.598362 25.598362 0 0 0 -4.351722-13.823115l-211.442467-335.850505a8.703443 8.703443 0 0 1 8.191475-13.823116zm0-51.196723h-807.884295a57.852297 57.852297 0 0 0 -49.404838 25.598362 47.356969 47.356969 0 0 0 0 51.196723l212.210418 337.130424a30.206067 30.206067 0 0 1 5.119673 16.638935l-7.167542 442.595674a60.668117 60.668117 0 0 0 41.469346 56.060412l188.91591 90.874184a62.204019 62.204019 0 0 0 53.244592-4.863689 51.196723 51.196723 0 0 0 25.598362-43.005248l1.791885-537.565595a28.414181 28.414181 0 0 1 8.959427-20.47869l366.824523-325.611161a48.892871 48.892871 0 0 0 17.150902-37.373608 54.268527 54.268527 0 0 0 -56.828363-51.196723zm159.22181 505.567643a34.557788 34.557788 0 0 0 -36.605657-31.997952h-297.96493a32.253936 32.253936 0 1 0 0 63.995905h297.96493a34.557788 34.557788 0 0 0 36.605657-31.997953zm0 185.588123a34.557788 34.557788 0 0 0 -36.605657-31.997952h-297.96493a32.253936 32.253936 0 1 0 0 63.995904h297.96493a34.557788 34.557788 0 0 0 36.605657-31.997952zm0 185.588122a34.557788 34.557788 0 0 0 -36.605657-31.997952h-297.96493a32.253936 32.253936 0 1 0 0 63.995904h297.96493a34.557788 34.557788 0 0 0 36.605657-31.997952z" fill="#8a8a8a"/></svg>