<svg height="64" viewBox="0 0 1024 1024" width="64" xmlns="http://www.w3.org/2000/svg"><path d="m878.08 731.274667a32 32 0 0 1 -54.88-32.938667 360.789333 360.789333 0 0 0 51.466667-186.336c0-200.298667-162.368-362.666667-362.666667-362.666667s-362.666667 162.368-362.666667 362.666667 162.368 362.666667 362.666667 362.666667a360.789333 360.789333 0 0 0 186.314667-51.445334 32 32 0 0 1 32.928 54.88 424.778667 424.778667 0 0 1 -219.242667 60.565334c-235.637333 0-426.666667-191.029334-426.666667-426.666667s191.029334-426.666667 426.666667-426.666667 426.666667 191.029333 426.666667 426.666667c0 78.293333-21.152 153.568-60.586667 219.274667zm-227.413333-293.941334c0 65.898667-46.72 120.853333-109.194667 135.082667v35.584a32 32 0 0 1 -64 0v-64a32 32 0 0 1 32-32c42.794667 0 77.194667-33.6 77.194667-74.666667s-34.4-74.666667-77.194667-74.666666c-26.773333 0-51.082667 13.248-65.173333 34.624a73.088 73.088 0 0 0 -8.522667 17.717333 32 32 0 0 1 -60.885333-19.690667c3.797333-11.754667 9.173333-22.933333 15.978666-33.237333 25.856-39.253333 70.186667-63.413333 118.613334-63.413333 77.792 0 141.184 61.909333 141.184 138.666666zm-138.666667 298.666667a32 32 0 1 1 0-64 32 32 0 0 1 0 64z" fill="#8a8a8a"/></svg>