<svg height="64" viewBox="0 0 1024 1024" width="64" xmlns="http://www.w3.org/2000/svg"><path d="m848.805886 805.572222c70.998007-81.260745 109.779266-184.217628 109.779266-293.14448 0-119.204939-46.421262-231.277434-130.713041-315.569212-82.99525-82.996273-192.931081-129.24255-310.083268-130.645502-1.924839-.599657-10.290367-.592494-12.227486.01535-116.682489 1.717107-226.127133 47.930638-308.826647 130.630152-82.871429 82.872452-129.104403 192.601576-130.639363 309.557288-.428765 1.64957-.436952 8.601912-.021489 10.226922 1.082658 117.628024 47.364751 228.058113 130.660852 311.354214 84.291778 84.291778 196.36325 130.713041 315.569212 130.713041 119.204939 0 231.277434-46.421262 315.569212-130.713041 6.139837-6.139837 12.054547-12.444427 17.789155-18.871813.50756-.453325 1.001817-.928139 1.471514-1.440815.617054-.672312 1.161453-1.384533 1.672083-2.112104zm-741.358735-273.528723h187.501418c1.322112 65.678862 9.253758 127.264499 22.505573 182.112688-61.690014 16.687054-100.819197 38.371936-121.076566 51.906184-52.067866-64.726165-84.701101-145.705501-88.930425-234.018872zm88.434121-272.635378c20.090571 13.556761 59.242266 35.461653 121.340579 52.260248-12.998035 54.127781-20.827351 114.778116-22.243607 179.432649h-187.452299c4.550643-87.369884 36.911678-167.488619 88.355327-231.692897zm721.200626 231.691873h-187.453322c-1.415232-64.630996-9.240455-125.260865-22.229281-179.37432 61.95505-16.693194 101.235682-38.444591 121.56673-52.020794 51.30448 64.155159 83.571371 144.161331 88.115873 231.395114zm-228.40399 0h-156.510589v-156.038845c52.209082-1.094938 97.103572-6.453992 135.272893-14.033621 12.56006 52.136427 19.846 109.869316 21.237696 170.072466zm-156.510589-196.984396v-184.197163c36.84107 10.398838 72.779583 49.205679 100.926644 110.015649 8.810666 19.035542 16.645099 39.641859 23.464411 61.521169-35.026748 6.772241-76.296687 11.607363-124.391055 12.660345zm-40.943505-183.842075v183.805236c-47.504944-1.12666-88.378863-6.001691-123.120109-12.802584 6.807033-21.812795 14.623046-42.35976 23.409153-61.344137 27.839045-60.139705 63.296605-98.756211 99.710956-109.658515zm0 224.767159v156.059312h-155.294902c1.391696-60.213383 8.679683-117.955482 21.243837-170.099073 37.835723 7.535627 82.31475 12.886495 134.051065 14.039761zm-155.330718 197.002817h155.330718v158.667719c-51.609425 1.194198-96.019891 6.563486-133.821845 14.103206-12.825096-52.886511-20.20825-111.571075-21.508873-172.770925zm155.330718 199.628619v182.909843c-36.415374-10.902304-71.871911-49.51881-99.709933-109.659539-8.679683-18.752086-16.409738-39.034015-23.157419-60.551074 34.639938-6.726191 75.416644-11.55108 122.867352-12.69923zm40.943505 183.264931v-183.328376c47.904033 1.025353 89.103364 5.862521 124.116809 12.656251-6.755868 21.555945-14.497179 41.87369-23.190165 60.656475-28.147061 60.809971-64.085575 99.616812-100.926644 110.01565zm0-224.276997v-158.616553h156.546406c-1.298576 61.096497-8.66024 119.68487-21.445428 172.502819-38.114064-7.532557-82.949201-12.83533-135.100978-13.886266zm197.491956-158.616553h187.501418c-4.221138 88.138386-36.732599 168.973436-88.620363 233.635131-20.469194-13.668301-59.635215-35.298947-121.30374-51.868321 13.20065-54.761208 21.10262-116.225072 22.422685-181.76681zm71.859631-303.300795c-18.329461 11.570523-52.309366 29.355585-104.858186 43.493583-19.295462-63.056128-46.110177-115.004267-78.06189-150.97655 70.40142 19.151176 133.234467 56.837497 182.920076 107.482967zm-395.510915-107.482966c-31.905664 35.920094-58.690704 87.768973-77.979002 150.702304-52.40351-14.241352-86.370113-32.099069-104.581893-43.587728 49.629326-50.460252 112.330367-88.009449 182.560895-107.114576zm-182.090175 675.703409c18.284435-11.535731 52.098565-29.230742 104.332207-43.335994 19.271926 62.60485 45.976124 114.186645 77.757968 149.968593-70.008471-19.044752-132.535549-56.413847-182.090175-106.632599zm394.681014 106.632599c31.801287-35.803437 58.517765-87.426165 77.792761-150.08218 51.984978 14.023388 85.972047 31.631418 104.533798 43.208081-49.592489 50.339502-112.206548 87.799672-182.326559 106.874099z" fill="#8a8a8a"/></svg>