<svg height="128" viewBox="0 0 1024 1024" width="128" xmlns="http://www.w3.org/2000/svg"><g fill="#8a8a8a"><path d="m705.604267 62.754133h-439.552a143.104 143.104 0 0 0 -143.36 143.36v596.0192c0 37.922133 15.36 73.472 42.666666 100.693334a141.653333 141.653333 0 0 0 91.221334 41.472h197.853866a32 32 0 0 0 0-63.982934h-188.381866c-42.666667 0-78.199467-35.5328-78.199467-78.199466v-596.002134c0-42.666667 35.549867-78.199467 78.199467-78.199466h439.552c42.666667 0 78.1824 35.549867 78.1824 78.199466v261.8368a32 32 0 0 0 63.982933 0v-261.8368c0-79.377067-63.982933-143.36-142.165333-143.36z"/><path d="m666.504533 271.36h-366.1312a32 32 0 0 0 0 63.982933h366.1312a31.8464 31.8464 0 0 0 31.982934-31.982933c1.194667-17.783467-13.038933-32-31.982934-32zm-138.615466 197.768533h-227.515734a32 32 0 0 0 0 63.982934h226.321067a32.426667 32.426667 0 0 0 22.510933-9.472 33.092267 33.092267 0 0 0 9.489067-23.7056c1.1776-16.5888-13.038933-30.805333-30.805333-30.805334zm-130.338134 197.853867h-95.9488a31.931733 31.931733 0 0 0 -28.450133 16.5888 31.044267 31.044267 0 0 0 0 32c5.922133 9.472 16.5888 16.5888 28.450133 16.5888h95.9488a31.931733 31.931733 0 0 0 28.450134-16.5888 31.044267 31.044267 0 0 0 0-32c-7.1168-9.472-17.783467-16.5888-28.450134-16.5888zm452.590934 298.564267h-240.503467c-29.627733 0-52.138667-26.0608-52.138667-55.671467v-167.0656c0-31.982933 23.7056-55.671467 52.138667-55.671467h14.216533c0-5.922133-2.372267-14.216533-2.372266-20.155733v-23.688533c0-58.026667 47.394133-107.810133 107.810133-107.810134 58.026667 0 107.810133 47.394133 107.810133 107.810134v20.138666c0 8.2944 0 14.216533-2.3552 20.138667h14.199467c29.627733 0 52.138667 26.077867 52.138667 55.688533v167.0656c1.1776 35.5328-22.510933 59.221333-50.944 59.221334zm-140.987734-135.0656v49.7664c0 11.844267 8.2944 20.138667 20.138667 20.138666s20.138667-8.2944 20.138667-20.138666v-49.7664c11.861333-8.277333 20.138667-20.138667 20.138666-37.905067 2.372267-20.138667-17.7664-41.472-41.454933-41.472a44.526933 44.526933 0 0 0 -43.844267 43.844267c1.1776 15.36 10.666667 29.627733 24.8832 35.5328zm85.333334-187.1872a63.982933 63.982933 0 0 0 -128 0v43.844266h129.160533v-43.844266z"/></g></svg>