<svg height="128" viewBox="0 0 1024 1024" width="128" xmlns="http://www.w3.org/2000/svg"><path d="m423.836543 114.819049v-.274246h-219.753983c-45.911656 0-83.09451 36.932144-83.356476 82.59309h-.023536v207.579709c0 2.468215.500397 4.782933 1.239224 7.000438 6.678096 39.245839 40.831964 69.164243 82.140789 69.164243l219.753982-.000001v-.237407c38.877449-2.432399 70.477144-31.363312 76.798107-68.926836.763386-2.217505 1.289366-4.532223 1.289366-7.000438v-207.579708h-.025583c-.214894-43.884487-34.654265-79.598896-78.06189-82.318844zm34.201963 278.641161c0 24.14798-19.654642 43.705408-43.88551 43.705408h-205.707058c-24.230867 0-43.858904-19.557428-43.858904-43.705408v-191.480033c0-24.149003 19.628036-43.717687 43.858904-43.717687h205.708082c24.230867 0 43.88551 19.569708 43.88551 43.717687l-.000001 191.480033zm444.208011-198.348464c-.215918-42.799782-33.818223-77.644381-76.153424-80.304977v-.261966h-191.70823c-44.790112 0-81.040734 36.037774-81.304747 80.56592h-.023536v202.511273c0 2.407839.476861 4.673439 1.240247 6.831592 6.487761 38.292118 39.830147 67.472717 80.08906 67.472717h191.70823v-.226151c37.921681-2.385327 68.734454-30.613228 74.961272-67.246567.738827-2.158153 1.216711-4.423753 1.216711-6.831592v-202.510249zm-42.785456 191.527105c0 23.551392-19.152199 42.643216-42.813085 42.643216h-177.96932c-23.658839 0-42.834574-19.091824-42.834574-42.643216v-186.806593c0-23.552415 19.175735-42.643216 42.834574-42.643216h177.969321c23.660886 0 42.813085 19.091824 42.813085 42.643216zm-443.780269 153.24829v-.260943l-213.841319-.000001c-44.670385 0-80.874959 35.94363-81.114412 80.375585h-.023536v201.974038c0 2.420119.477884 4.687766 1.215688 6.821359 6.464225 38.181601 39.73498 67.316152 79.922261 67.316152h213.841318v-.236384c37.824467-2.350534 68.567655-30.529317 74.744331-67.079768.762363-2.133593 1.24127-4.40124 1.24127-6.821359l.000001-201.974037h-.049119c-.214894-42.693358-33.697473-77.465303-75.936483-80.114642zm33.294291 271.153629c0 23.493064-19.127639 42.524512-42.691311 42.524512l-193.330171.000001s-.022513 0-.047072 0h-6.822382c-23.563672 0-42.690288-19.031449-42.690288-42.524512v-186.353269c0-23.469528 19.126616-42.525536 42.690288-42.525536h200.200648c23.563672 0 42.691311 19.056008 42.691311 42.525536v186.353268zm272.178983-57.920154c-14.741749 0-26.66736 11.508102-26.66736 25.699312v51.395554c0 14.228049 11.924587 25.721825 26.66736 25.721825 14.736633 0 26.663266-11.492752 26.663266-25.721825v-51.395554c0-14.19121-11.925611-25.699312-26.663266-25.699312zm113.62178-25.721824c-14.739702 0-26.665313 11.494799-26.665313 25.697265v77.118402c0 14.214746 11.924587 25.701358 26.665313 25.701358 14.763239 0 26.688849-11.487635 26.688849-25.701358v-77.118402c0-14.201444-11.926634-25.697265-26.688849-25.697265zm0-154.226571c-14.739702 0-26.665313 11.506055-26.665313 25.722848v51.395554c0 14.189164 11.924587 25.697265 26.665313 25.697265 14.763239 0 26.688849-11.508102 26.688849-25.697265v-51.395554c0-14.21577-11.926634-25.722848-26.688849-25.722848zm-113.62178.023536c-14.741749 0-26.66736 11.507078-26.66736 25.709545v102.829993c0 14.192234 11.924587 25.686009 26.66736 25.686009 14.736633 0 26.663266-11.492752 26.663266-25.686009v-102.829993c0-14.202467-11.925611-25.709545-26.663266-25.709545zm-115.103528 128.539538c-14.68956 0-26.640754 11.435447-26.640754 25.663496v102.81669c0 14.214746 11.951193 25.701358 26.640754 25.701358 14.787798 0 26.712385-11.487635 26.712385-25.701358v-102.816689c.001023-14.22805-11.924587-25.663497-26.712385-25.663497zm0-128.563074c-14.68956 0-26.640754 11.506055-26.640754 25.722848v25.709545c0 14.201443 11.951193 25.686009 26.640754 25.686009 14.787798 0 26.712385-11.484565 26.712385-25.686009v-25.709545c.001023-14.21577-11.924587-25.722848-26.712385-25.722848z" fill="#8a8a8a"/></svg>