<svg height="64" viewBox="0 0 1024 1024" width="64" xmlns="http://www.w3.org/2000/svg"><path d="m944.48 552.458667-182.357333 330.666666a73.792 73.792 0 0 1 -64.565334 38.325334h-362.133333a73.792 73.792 0 0 1 -64.565333-38.325334l-182.357334-330.666666a75.338667 75.338667 0 0 1 0-72.682667l182.357334-330.666667a73.792 73.792 0 0 1 64.565333-38.325333h362.133333a73.792 73.792 0 0 1 64.565334 38.325333l182.357333 330.666667a75.338667 75.338667 0 0 1 0 72.682667zm-55.989333-31.146667a10.773333 10.773333 0 0 0 0-10.378667l-182.037334-330.666666a10.517333 10.517333 0 0 0 -9.205333-5.482667h-361.514667a10.517333 10.517333 0 0 0 -9.205333 5.482667l-182.037333 330.666666a10.773333 10.773333 0 0 0 0 10.378667l182.037333 330.666667a10.517333 10.517333 0 0 0 9.205333 5.472h361.514667a10.517333 10.517333 0 0 0 9.205333-5.472zm-374.752 161.354667c-94.261333 0-170.666667-76.405333-170.666667-170.666667s76.405333-170.666667 170.666667-170.666667c94.250667 0 170.666667 76.405333 170.666666 170.666667s-76.416 170.666667-170.666666 170.666667zm0-64c58.912 0 106.666667-47.754667 106.666666-106.666667s-47.754667-106.666667-106.666666-106.666667-106.666667 47.754667-106.666667 106.666667 47.754667 106.666667 106.666667 106.666667z" fill="#8a8a8a"/></svg>