<svg height="64" viewBox="0 0 1024 1024" width="64" xmlns="http://www.w3.org/2000/svg"><path d="m832 64c35.3456 0 64 28.6544 64 64v768c0 35.3456-28.6544 64-64 64h-640c-35.3456 0-64-28.6544-64-64v-768c0-35.3456 28.6544-64 64-64zm0 48h-640c-8.8368 0-16 7.1632-16 16v768c0 8.8368 7.1632 16 16 16h640c8.8368 0 16-7.1632 16-16v-768c0-8.8368-7.1632-16-16-16zm-320 656c26.5104 0 48 21.4896 48 48s-21.4896 48-48 48-48-21.4896-48-48 21.4896-48 48-48zm104-608c13.2544 0 24 10.7456 24 24s-10.7456 24-24 24h-208c-13.2544 0-24-10.7456-24-24s10.7456-24 24-24z" fill="#8a8a8a"/></svg>