<svg height="64" viewBox="0 0 1024 1024" width="64" xmlns="http://www.w3.org/2000/svg"><path d="m822.496 473.152a32 32 0 0 0 -31.392 55.776l97.450667 54.848c20.32 11.434667 45.653333-2.005333 47.594666-25.248 1.674667-20.16 2.517333-35.573333 2.517334-46.528 0-235.637333-191.029334-426.666667-426.666667-426.666667s-426.666667 191.029334-426.666667 426.666667 191.029333 426.666667 426.666667 426.666667c144.106667 0 276.053333-72.032 354.752-189.536a32 32 0 1 0 -53.173333-35.616c-66.933334 99.946666-179.04 161.152-301.578667 161.152-200.298667 0-362.666667-162.368-362.666667-362.666667s162.368-362.666667 362.666667-362.666667c197.098667 0 357.472 157.226667 362.538667 353.109334z" fill="#8a8a8a"/></svg>